<svg xmlns="http://www.w3.org/2000/svg" style="display:none">
  <!--
    Icon sprite. Referenced with <use href="./assets/icons.svg#i-NAME"/>.
    Line icons on a 20x20 grid, 1.6 stroke, currentColor. Keep additions in this
    style. The brand keyhole and the search glass live inline in index.html; the
    vote caret is inline in ui.js because its fill is toggled by CSS.
  -->
  <symbol id="i-pencil" viewBox="0 0 20 20" fill="none" stroke="currentColor"
          stroke-width="1.6" stroke-linejoin="round" stroke-linecap="round">
    <path d="M13.4 3.6 L16.4 6.6 L7 16 L3.6 16.4 L4 12.9 Z" />
    <path d="M12 5 L15 8" />
  </symbol>

  <!-- A pendant lamp, because the header mark is one and this is the same room.
       Drawn unlit: the light under it is a line, not a glow, so the badge beside
       it is the only thing that changes when something arrives. -->
  <symbol id="i-lamp" viewBox="0 0 20 20" fill="none" stroke="currentColor"
          stroke-width="1.6" stroke-linejoin="round" stroke-linecap="round">
    <path d="M10 2.4 V5" />
    <path d="M4.8 11.6 L7.6 5 h4.8 l2.8 6.6 Z" />
    <path d="M7.6 14.6 h4.8" />
  </symbol>

  <symbol id="i-sun" viewBox="0 0 20 20" fill="none" stroke="currentColor"
          stroke-width="1.6" stroke-linecap="round">
    <circle cx="10" cy="10" r="3.6" />
    <path d="M10 2v2 M10 16v2 M2 10h2 M16 10h2 M4 4l1.5 1.5 M14.5 14.5 16 16 M16 4l-1.5 1.5 M5.5 14.5 4 16" />
  </symbol>

  <symbol id="i-moon" viewBox="0 0 20 20" fill="none" stroke="currentColor"
          stroke-width="1.6" stroke-linejoin="round">
    <path d="M16 11.7 A6.4 6.4 0 1 1 8.3 4 A5 5 0 0 0 16 11.7 Z" />
  </symbol>

  <symbol id="i-chevron-left" viewBox="0 0 20 20" fill="none" stroke="currentColor"
          stroke-width="1.8" stroke-linecap="round" stroke-linejoin="round">
    <path d="M12 4 L6 10 L12 16" />
  </symbol>

  <symbol id="i-sign-out" viewBox="0 0 20 20" fill="none" stroke="currentColor"
          stroke-width="1.6" stroke-linecap="round" stroke-linejoin="round">
    <path d="M12.5 3.5 H16 A0.5 0.5 0 0 1 16.5 4 V16 A0.5 0.5 0 0 1 16 16.5 H12.5" />
    <path d="M9 6.5 L5.5 10 L9 13.5" />
    <path d="M5.5 10 H13" />
  </symbol>

  <symbol id="i-eye" viewBox="0 0 20 20" fill="none" stroke="currentColor"
          stroke-width="1.5" stroke-linejoin="round">
    <path d="M1 10 C3 5 6.5 3 10 3 C13.5 3 17 5 19 10 C17 15 13.5 17 10 17 C6.5 17 3 15 1 10 Z" />
    <circle cx="10" cy="10" r="3" />
  </symbol>

  <!-- The shelf. Two symbols rather than one whose fill CSS toggles: a <use>
       reference is a shadow tree, and `fill` set on the symbol wins over
       anything reachable from outside it. The theme toggle already swaps sun
       for moon the same way. -->
  <symbol id="i-bookmark" viewBox="0 0 20 20" fill="none" stroke="currentColor"
          stroke-width="1.6" stroke-linejoin="round" stroke-linecap="round">
    <path d="M5.7 3.6 H14.3 V16.4 L10 13 L5.7 16.4 Z" />
  </symbol>

  <symbol id="i-bookmark-filled" viewBox="0 0 20 20" fill="currentColor"
          stroke="currentColor" stroke-width="1.6" stroke-linejoin="round"
          stroke-linecap="round">
    <path d="M5.7 3.6 H14.3 V16.4 L10 13 L5.7 16.4 Z" />
  </symbol>

  <!-- Settings. A gear drawn as a body and eight spokes rather than a single
       toothed outline: the outline needs curves too small to survive a 1.6
       stroke at 16px, and goes to mush exactly where this is used. -->
  <symbol id="i-gear" viewBox="0 0 20 20" fill="none" stroke="currentColor"
          stroke-width="1.6" stroke-linejoin="round" stroke-linecap="round">
    <circle cx="10" cy="10" r="5" />
    <circle cx="10" cy="10" r="2.1" />
    <path d="M15 10 H17.2 M2.8 10 H5 M10 15 V17.2 M10 2.8 V5" />
    <path d="M13.54 13.54 L15.09 15.09 M4.91 4.91 L6.46 6.46
             M6.46 13.54 L4.91 15.09 M15.09 4.91 L13.54 6.46" />
  </symbol>

  <!-- The account menu's caret. Same geometry as i-chevron-left, turned a
       quarter: an avatar on its own does not say that anything opens. -->
  <symbol id="i-chevron-down" viewBox="0 0 20 20" fill="none" stroke="currentColor"
          stroke-width="1.8" stroke-linecap="round" stroke-linejoin="round">
    <path d="M4 7.5 L10 13.5 L16 7.5" />
  </symbol>
</svg>
